<?xml version="1.0" standalone="no"?><svg xmlns="http://www.w3.org/2000/svg" viewBox="0 0 1440 320"><path fill="#f3f4f5" fill-opacity="1" d="M0,256L30,240C60,224,120,192,180,149.3C240,107,300,53,360,42.7C420,32,480,64,540,101.3C600,139,660,181,720,186.7C780,192,840,160,900,160C960,160,1020,192,1080,170.7C1140,149,1200,75,1260,74.7C1320,75,1380,149,1410,186.7L1440,224L1440,320L1410,320C1380,320,1320,320,1260,320C1200,320,1140,320,1080,320C1020,320,960,320,900,320C840,320,780,320,720,320C660,320,600,320,540,320C480,320,420,320,360,320C300,320,240,320,180,320C120,320,60,320,30,320L0,320Z"></path></svg>